<svg id="Capa_1" enable-background="new 0 0 511.5 511.5" height="512" viewBox="0 0 511.5 511.5" width="512" xmlns="http://www.w3.org/2000/svg"><g><path d="m496.5 480.75h-115.398c-61.102 0-117.797-21.448-159.643-60.394-69.553-64.733-45.266-125.09-71.61-156.488-39.662 51.125-61.349 114.17-61.349 179.161v22.721c0 8.284-6.716 15-15 15h-30c-8.284 0-15-6.716-15-15v-111.947c0-42.348-7.184-85.37-21.351-127.87-21.376-64.129 7.505-142.55 55.744-190.79 5.857-5.856 15.355-5.858 21.213 0 136.427 136.427 173.338 248.028 187.232 290.042 14.371 43.423 67.747 45.144 89.682 12.245 4.744-7.117 14.463-8.817 21.338-3.785l123 90c3.861 2.825 6.143 7.322 6.143 12.105v30c-.001 8.284-6.716 15-15.001 15zm-339.858-250.788c58.993 40.731 15.443 103.461 85.257 168.434 36.274 33.761 85.711 52.354 139.203 52.354h100.398v-7.389l-105.411-77.13c-39.24 39.77-112.704 30.424-133.233-31.626-12.907-39.027-46.581-140.858-169.021-267.137-33.388 39.127-54.36 100.575-38.225 148.979 15.188 45.565 22.89 91.778 22.89 137.357v96.947c.796-4.575-9.347-116.704 78.262-218.244 5.021-5.819 13.594-6.885 19.88-2.545z"/></g></svg>